Coordinates
version=1
nRows=32
nColumns=12
inDegrees=yes

Units are S.I. units (second, meters, Newtons, ...)
Angles are in degrees

endheader
time	SC_y	SC_z	SC_x	AC_y	AC_z	AC_x	GH_y	GH_z	GH_yy	EL_x	PS_y
       0.0              -35.81          12.81          11.29          65.01          -15.9          6.057          33.05          42.33          92.26          92.81          80.78
  0.007823              -35.81          12.81          11.29          65.01          -15.9          6.057          33.04          42.33          92.26          92.81          80.77
   0.01565              -35.81          12.81           11.3           65.0          -15.9          6.057          33.02          42.33          92.25          92.81          80.77
   0.02347              -35.81          12.82          11.31           65.0         -15.89          6.058           33.0          42.33          92.24          92.81          80.76
   0.03129              -35.81          12.82          11.31          64.99         -15.89          6.058          32.97          42.33          92.24           92.8          80.75
   0.03911              -35.81          12.82          11.32          64.99         -15.89          6.058          32.95          42.33          92.23           92.8          80.74
   0.04694              -35.81          12.83          11.33          64.98         -15.88          6.058          32.93          42.32          92.23           92.8          80.73
   0.05476              -35.81          12.83          11.34          64.97         -15.88          6.058           32.9          42.32          92.22           92.8          80.73
   0.06258              -35.81          12.84          11.35          64.96         -15.88          6.059          32.87          42.32          92.21           92.8          80.71
    0.0704              -35.81          12.84          11.36          64.96         -15.87          6.059          32.84          42.32           92.2           92.8           80.7
   0.07823              -35.81          12.85          11.37          64.95         -15.87          6.059          32.81          42.31          92.19           92.8          80.69
   0.08605              -35.81          12.85          11.38          64.94         -15.86           6.06          32.78          42.31          92.18           92.8          80.68
   0.09387              -35.81          12.86           11.4          64.93         -15.86           6.06          32.74          42.31          92.17           92.8          80.67
    0.1017              -35.81          12.87          11.41          64.92         -15.85           6.06           32.7           42.3          92.16           92.8          80.65
    0.1095              -35.81          12.87          11.43           64.9         -15.85          6.061          32.65           42.3          92.15          92.79          80.63
    0.1173              -35.81          12.88          11.44          64.89         -15.84          6.061          32.61           42.3          92.14          92.79          80.62
    0.1252              -35.81          12.89          11.46          64.88         -15.84          6.062          32.55          42.29          92.12          92.79           80.6
     0.133              -35.81           12.9          11.48          64.86         -15.83          6.062           32.5          42.29          92.11          92.79          80.58
    0.1408              -35.81          12.91           11.5          64.84         -15.82          6.063          32.43          42.28          92.09          92.79          80.55
    0.1486              -35.81          12.92          11.52          64.82         -15.81          6.064          32.37          42.28          92.07          92.78          80.53
    0.1565              -35.81          12.93          11.55           64.8          -15.8          6.065          32.29          42.27          92.05          92.78           80.5
    0.1643              -35.81          12.95          11.58          64.78         -15.79          6.065          32.21          42.27          92.03          92.78          80.47
    0.1721              -35.82          12.96          11.61          64.75         -15.78          6.066          32.12          42.26          92.01          92.78          80.44
    0.1799              -35.82          12.98          11.64          64.73         -15.77          6.067          32.02          42.25          91.98          92.77           80.4
    0.1877              -35.82           13.0          11.68           64.7         -15.75          6.068          31.91          42.24          91.95          92.77          80.36
    0.1956              -35.82          13.02          11.73          64.66         -15.74           6.07          31.79          42.23          91.91          92.76          80.32
    0.2034              -35.82          13.04          11.77          64.62         -15.72          6.071          31.65          42.22          91.88          92.76          80.27
    0.2112              -35.82          13.07          11.83          64.58          -15.7          6.073          31.49          42.21          91.83          92.75          80.21
     0.219              -35.82           13.1          11.89          64.53         -15.67          6.074          31.32          42.19          91.78          92.75          80.15
    0.2269              -35.82          13.13          11.96          64.47         -15.65          6.076          31.11          42.18          91.73          92.74          80.07
    0.2347              -35.82          13.17          12.04          64.41         -15.62          6.079          30.89          42.16          91.67          92.73          79.99
    0.2425              -35.82          13.21          12.13          64.34         -15.58          6.081          30.62          42.13           91.6          92.72          79.89
